<?xml version="1.0" encoding="UTF-8" standalone="no"?>
<!-- Created with Inkscape (http://www.inkscape.org/) -->

<svg id="svg1" width="820" height="200" viewBox="0 0 820 200" sodipodi:docname="favicon.svg"
   inkscape:version="1.3.2 (091e20e, 2023-11-25)" xmlns:inkscape="http://www.inkscape.org/namespaces/inkscape"
   xmlns:sodipodi="http://sodipodi.sourceforge.net/DTD/sodipodi-0.dtd" xmlns="http://www.w3.org/2000/svg"
   xmlns:svg="http://www.w3.org/2000/svg">
   <defs id="defs1" />
   <sodipodi:namedview id="namedview1" pagecolor="#ffffff" bordercolor="#000000" borderopacity="0.25"
      inkscape:showpageshadow="2" inkscape:pageopacity="0.0" inkscape:pagecheckerboard="0" inkscape:deskcolor="#d1d1d1"
      inkscape:zoom="0.6398454" inkscape:cx="409.47391" inkscape:cy="100.02416" inkscape:window-width="1408"
      inkscape:window-height="847" inkscape:window-x="1736" inkscape:window-y="126" inkscape:window-maximized="0"
      inkscape:current-layer="g1" />
   <g inkscape:groupmode="layer" inkscape:label="Image" id="g1">
      <path style="fill:#000000;stroke-width:1.62218"
         d="m 504.22644,193.18651 c -15.45105,-2.70644 -12.9472,-24.1207 10.46376,-89.49217 22.34139,-62.384859 24.59268,-84.414682 9.34477,-91.443751 C 485.87201,-5.3419087 422.51218,50.53074 418.88741,104.973 c -3.15723,47.42056 48.86374,51.65896 64.71496,5.27262 6.74872,-19.749059 2.42105,-31.163657 -11.81514,-31.163657 -9.74812,0 -6.88443,-3.551397 3.76735,-4.672008 32.3112,-3.399315 23.45764,48.634795 -11.58931,68.113075 -33.74809,18.75644 -65.23613,-14.84239 -54.01412,-57.634879 20.12071,-76.7258026 133.69839,-114.651573 134.10064,-44.778769 0.0873,15.202068 -2.66915,25.621796 -17.72044,66.979788 -28.05607,77.09247 -28.12677,99.63369 -0.21416,68.22372 10.45664,-11.76682 14.28335,-17.95506 46.1687,-74.66081 20.83291,-37.049841 27.97403,-28.09795 11.90534,14.92409 -18.61418,49.83706 -11.95387,72.94537 16.89238,58.60895 56.88148,-28.2698 81.31412,-127.489679 31.02027,-125.972031 -8.32378,0.251145 -9.06537,0.0017 -7.22638,-2.423613 3.40074,-4.486503 19.71016,-2.519246 27.38358,3.303031 33.24429,25.22439 12.27434,99.286343 -35.60044,125.734433 -34.03158,18.80048 -55.99096,4.84669 -51.172,-32.51659 1.73134,-13.42376 1.2659,-13.28087 -8.48009,2.60351 -19.29771,31.45197 -40.11574,50.49138 -52.78218,48.27265 z M 148.01453,173.38172 c -13.27244,-5.35243 -17.46869,-19.40943 -8.91422,-29.86164 8.94846,-10.93364 26.81795,-9.86994 49.57471,2.95099 17.21519,9.69887 19.24777,7.51149 49.21356,-52.961148 15.34691,-30.971013 26.77648,-51.283132 31.03328,-55.151204 12.47665,-11.337242 -34.28534,-23.387435 -62.49791,-16.105254 -32.66762,8.432135 -57.36341,38.002663 -49.32646,59.063047 7.33569,19.222709 35.0536,16.884991 43.51944,-3.670427 3.44889,-8.373891 6.34236,-9.355877 4.93954,-1.676309 -6.11878,33.496985 -55.41611,29.509015 -58.00655,-4.69251 -3.38765,-44.726827 70.7214,-73.6742694 123.35433,-48.182977 6.95778,3.369803 6.95778,3.369803 12.83249,-2.441184 12.49671,-12.3613836 24.61143,-17.6609586 15.28747,-6.687517 -11.95543,14.070393 -13.14905,17.202062 -8.13743,21.350144 77.53313,64.173631 22.65883,164.989549 -71.77638,131.868769 -14.84728,-5.20735 -14.84728,-5.20735 -26.38086,1.20231 -13.56844,7.54046 -33.01587,9.71286 -44.71501,4.99491 z m 38.28566,-8.86641 c 11.65912,-5.72879 11.48213,-6.29852 -4.50464,-14.50107 -22.2294,-11.4055 -35.07295,-9.5027 -35.07295,5.19619 0,15.15344 18.71835,19.55422 39.57759,9.30488 z m 87.77306,3.78593 c 35.39142,-10.31455 49.32811,-54.50131 30.64962,-97.175221 -4.71894,-10.781116 -21.285,-33.119347 -23.05226,-31.084374 -0.40537,0.466774 -10.58321,18.314312 -22.61743,39.661139 -24.35562,43.203086 -33.35866,57.628556 -43.15615,69.148866 -8.4589,9.94632 -8.81928,9.10825 6.14423,14.28844 21.60643,7.47987 38.37043,9.14273 52.03199,5.16115 z m 69.063,-0.10939 c -1.65027,-4.70856 0.87732,-10.93341 4.88687,-12.03527 7.97,-2.19012 12.11117,3.2612 7.86608,10.35477 -2.91009,4.86279 -11.25237,5.9621 -12.75295,1.6805 z m 339.26606,0.51306 c -4.76578,-5.21797 0.90762,-13.8902 8.46704,-12.94264 3.43573,0.43066 4.50384,1.52815 4.87215,5.00607 0.83224,7.85806 -8.39607,13.34873 -13.33919,7.93657 z"
         id="path1" inkscape:label="path1" />
   </g>
</svg>