<?xml version="1.0" encoding="UTF-8" standalone="no"?>
<!-- Created with Inkscape (http://www.inkscape.org/) -->

<svg
   version="1.1"
   id="svg1"
   width="234.50673"
   height="99.387978"
   viewBox="0 0 234.50673 99.387978"
   sodipodi:docname="favicon.svg"
   inkscape:version="1.3.2 (091e20e, 2023-11-25)"
   inkscape:export-filename="favicon.png"
   inkscape:export-xdpi="96"
   inkscape:export-ydpi="96"
   xmlns:inkscape="http://www.inkscape.org/namespaces/inkscape"
   xmlns:sodipodi="http://sodipodi.sourceforge.net/DTD/sodipodi-0.dtd"
   xmlns="http://www.w3.org/2000/svg"
   xmlns:svg="http://www.w3.org/2000/svg">
  <defs
     id="defs1" />
  <sodipodi:namedview
     id="namedview1"
     pagecolor="#ffffff"
     bordercolor="#000000"
     borderopacity="0.25"
     inkscape:showpageshadow="2"
     inkscape:pageopacity="0.0"
     inkscape:pagecheckerboard="0"
     inkscape:deskcolor="#d1d1d1"
     inkscape:zoom="0.6398454"
     inkscape:cx="227.39868"
     inkscape:cy="55.482152"
     inkscape:window-width="1408"
     inkscape:window-height="788"
     inkscape:window-x="32"
     inkscape:window-y="25"
     inkscape:window-maximized="0"
     inkscape:current-layer="g1" />
  <g
     inkscape:groupmode="layer"
     inkscape:label="bg"
     id="g1"
     transform="translate(-181.53238,-43.961414)">
    <path
       style="fill:#000000;stroke-width:0.758383"
       d="m 335.98195,143.25789 c -6.45708,-1.41547 -5.41071,-12.6151 4.37286,-46.804291 9.33658,-32.627194 10.27741,-44.148759 3.90523,-47.824947 -15.94851,-9.20085 -42.42691,20.020467 -43.94171,48.493689 -1.31943,24.800879 20.42041,27.017569 27.04471,2.757567 2.82033,-10.328731 1.01177,-16.298542 -4.9376,-16.298542 -4.07379,0 -2.87704,-1.857373 1.57439,-2.443458 13.50302,-1.777829 9.80307,25.435922 -4.84323,35.623052 -14.10351,9.80959 -27.26253,-7.76256 -22.57278,-30.142967 8.40854,-40.127493 55.87325,-59.962612 56.04135,-23.419233 0.0364,7.950663 -1.11545,13.400162 -7.40546,35.030334 -11.72478,40.319256 -11.75433,52.108276 -0.0896,35.680906 4.36989,-6.15403 5.96909,-9.39047 19.29414,-39.047489 8.70619,-19.37703 11.6905,-14.695198 4.97531,7.805279 -7.77896,26.0647 -4.99558,38.15032 7.05941,30.65239 23.77107,-14.78506 33.98159,-66.676917 12.96353,-65.883195 -3.47855,0.131299 -3.78846,10e-4 -3.01994,-1.267548 1.42119,-2.34643 8.23699,-1.317556 11.44374,1.727479 13.89296,13.192321 5.12951,51.926614 -14.87761,65.758934 -14.22197,9.83263 -23.39892,2.53481 -21.38504,-17.00613 0.72354,-7.0206 0.52903,-6.94588 -3.54388,1.36163 -8.06461,16.44935 -16.76458,26.40693 -22.05795,25.24654 z M 187.11913,132.9 c -5.54662,-2.79932 -7.30025,-10.1511 -3.72529,-15.61759 3.7396,-5.71829 11.20736,-5.16197 20.71752,1.54337 7.19432,5.07249 8.04374,3.92849 20.56661,-27.69861 6.41355,-16.197802 11.19002,-26.821002 12.96896,-28.844014 5.21406,-5.929357 -14.32802,-12.231595 -26.11819,-8.423015 -13.65198,4.409993 -23.97247,19.875341 -20.61379,30.889888 3.06562,10.053452 14.64909,8.830822 18.187,-1.919624 1.44131,-4.379543 2.65051,-4.893113 2.06425,-0.876706 -2.55706,17.518866 -23.15867,15.433165 -24.24122,-2.454186 -1.41572,-23.392072 29.55483,-38.531532 51.5504,-25.199627 2.9077,1.762406 2.9077,1.762406 5.36277,-1.276733 5.22245,-6.464983 10.28525,-9.236664 6.38871,-3.497568 -4.99623,7.358804 -5.49505,8.996652 -3.40068,11.166101 32.40151,33.562724 9.46925,86.289304 -29.99571,68.967174 -6.20476,-2.72343 -6.20476,-2.72343 -11.0247,0.62881 -5.67033,3.94365 -13.7975,5.07981 -18.68664,2.61233 z m 15.99978,-4.63712 c 4.87241,-2.99614 4.79844,-3.29412 -1.88251,-7.58403 -9.28979,-5.96506 -14.65717,-4.9699 -14.65717,2.71759 0,7.92524 7.8225,10.22683 16.53968,4.86644 z m 36.68082,1.98004 c 14.79026,-5.3945 20.61448,-28.50411 12.80864,-50.8225 -1.97207,-5.638505 -8.89512,-17.32137 -9.63367,-16.257092 -0.1694,0.244119 -4.42277,9.578357 -9.45193,20.742725 -10.17835,22.595157 -13.94077,30.139647 -18.03519,36.164767 -3.53501,5.2019 -3.68562,4.7636 2.56771,7.47282 9.02944,3.91197 16.0352,4.78165 21.74444,2.69928 z m 28.86178,-0.0572 c -0.68965,-2.46258 0.36664,-5.71816 2.04225,-6.29443 3.33071,-1.14543 5.06133,1.7056 3.28728,5.41553 -1.21614,2.54323 -4.70242,3.11816 -5.32953,0.8789 z m 141.78107,0.26832 c -1.99165,-2.72899 0.37929,-7.26455 3.53842,-6.76898 1.4358,0.22524 1.88217,0.79922 2.03609,2.61817 0.3478,4.10975 -3.50876,6.98137 -5.57451,4.15081 z"
       id="path1"
       inkscape:label="path1" />
  </g>
</svg>
