<?xml version="1.0" encoding="UTF-8" standalone="no"?>
<!-- Created with Inkscape (http://www.inkscape.org/) -->

<svg
   version="1.1"
   id="svg1"
   width="295.45895"
   height="122.83115"
   viewBox="0 0 295.45896 122.83114"
   sodipodi:docname="favicon.svg"
   inkscape:version="1.3.2 (091e20e, 2023-11-25)"
   inkscape:export-filename="favicon.png"
   inkscape:export-xdpi="96"
   inkscape:export-ydpi="96"
   xmlns:inkscape="http://www.inkscape.org/namespaces/inkscape"
   xmlns:sodipodi="http://sodipodi.sourceforge.net/DTD/sodipodi-0.dtd"
   xmlns="http://www.w3.org/2000/svg"
   xmlns:svg="http://www.w3.org/2000/svg">
  <defs
     id="defs1" />
  <sodipodi:namedview
     id="namedview1"
     pagecolor="#ffffff"
     bordercolor="#000000"
     borderopacity="0.25"
     inkscape:showpageshadow="2"
     inkscape:pageopacity="0.0"
     inkscape:pagecheckerboard="0"
     inkscape:deskcolor="#d1d1d1"
     inkscape:zoom="0.6398454"
     inkscape:cx="226.61724"
     inkscape:cy="55.482152"
     inkscape:window-width="1408"
     inkscape:window-height="788"
     inkscape:window-x="32"
     inkscape:window-y="908"
     inkscape:window-maximized="0"
     inkscape:current-layer="svg1" />
  <path
     style="fill:#000000;fill-opacity:1;stroke-width:3.071;stroke-dasharray:none;paint-order:normal;stroke:#000000;stroke-opacity:1;stroke-dashoffset:0;stroke-linejoin:bevel;stroke-linecap:round"
     d="m 194.59359,122.71806 c -8.13538,-1.74935 -6.81704,-15.59069 5.50945,-57.844265 11.76331,-40.323137 12.94868,-54.562361 4.92026,-59.1056724 -20.0938,-11.3711027 -53.45437,24.7428034 -55.3629,59.9321514 -1.66237,30.650793 25.72803,33.390345 34.07409,3.408012 3.55338,-12.765022 1.27475,-20.142962 -6.22096,-20.142962 -5.13264,0 -3.62484,-2.29549 1.9836,-3.019812 17.01267,-2.197176 12.35104,31.435622 -6.10207,44.025643 -17.76925,12.123435 -34.34852,-9.593555 -28.43983,-37.252948 10.59406,-49.592571 70.39564,-74.106305 70.60744,-28.943246 0.0459,9.826024 -1.40537,16.560925 -9.33026,43.29313 -14.77225,49.829559 -14.80948,64.399319 -0.11289,44.097139 5.5057,-7.60561 7.52055,-11.605448 24.30901,-48.257825 10.96907,-23.947591 14.72905,-18.161434 6.26848,9.646351 -9.80085,32.212724 -6.29402,47.149034 8.89426,37.882534 29.94957,-18.272495 42.81398,-82.404357 16.33297,-81.423405 -4.38268,0.162269 -4.77315,0.0012 -3.80488,-1.566534 1.79059,-2.899895 10.37793,-1.62834 14.41817,2.13495 17.50397,16.304062 6.46276,64.174809 -18.74455,81.269829 -17.9185,12.15191 -29.48069,3.13271 -26.94337,-21.017454 0.9116,-8.676586 0.66653,-8.58424 -4.46499,1.682805 -10.16075,20.329349 -21.12198,32.635669 -27.79119,31.201579 z M 7.0388413,109.917 C 0.05056195,106.45738 -2.1588659,97.371507 2.3452861,90.615603 7.0568707,83.54851 16.465627,84.236051 28.447636,92.523015 37.51188,98.791978 38.582079,97.378136 54.359852,58.290992 62.440391,38.272531 68.458345,25.143582 70.699662,22.643393 77.268943,15.315445 52.64755,7.5266619 37.792917,12.233592 20.592559,17.683801 7.5896013,36.797033 11.821258,50.409642 c 3.862426,12.424809 18.456634,10.913792 22.914106,-2.372411 1.81593,-5.412578 3.339422,-6.047286 2.600783,-1.083504 C 34.114464,68.604865 8.1581513,66.027199 6.7942285,43.920654 5.0105392,15.010974 44.030853,-3.6995098 71.743439,12.777067 75.4069,14.955175 75.4069,14.955175 78.500084,11.199176 85.079936,3.2092677 91.458642,-0.21618299 86.549326,6.8766286 80.254492,15.971187 79.626021,17.995366 82.264753,20.676536 123.08795,62.15587 94.195219,127.31935 44.472655,105.91135 c -7.817481,-3.36582 -7.817481,-3.36582 -13.890203,0.77713 -7.144144,4.87386 -17.383702,6.27801 -23.5436107,3.22852 z m 20.1583907,-5.73091 c 6.13883,-3.70285 6.045634,-4.07112 -2.371806,-9.372914 -11.704362,-7.372067 -18.4668137,-6.142174 -18.4668137,3.358609 0,9.794605 9.8556977,12.639085 20.8386197,6.014305 z m 46.214779,2.44709 C 92.046507,99.966252 99.384538,71.405652 89.54983,43.822909 87.065186,36.854426 78.342719,22.415857 77.412208,23.731174 77.198778,24.032876 71.839887,35.568831 65.503564,49.366588 52.67969,77.291385 47.939354,86.615433 42.780726,94.061732 c -4.453819,6.428898 -4.643574,5.887212 3.235101,9.235468 11.376342,4.83471 20.203016,5.90952 27.396184,3.33598 z m 36.363429,-0.0707 c -0.86889,-3.04344 0.46195,-7.066941 2.57308,-7.779132 4.19641,-1.415611 6.37685,2.107902 4.14169,6.692912 -1.53223,3.14312 -5.92466,3.85367 -6.71477,1.08622 z m 178.63235,0.3316 c -2.50931,-3.37268 0.47788,-8.978073 4.45811,-8.365608 1.80899,0.278371 2.37138,0.987732 2.56531,3.235728 0.4382,5.07914 -4.42074,8.62811 -7.02342,5.12988 z"
     id="path1"
     inkscape:label="path1" />
</svg>
