<?xml version="1.0" encoding="UTF-8" standalone="no"?>
<!-- Created with Inkscape (http://www.inkscape.org/) -->

<svg version="1.1" id="svg1" width="207.93782" height="72.819054" viewBox="0 0 207.93782 72.819054"
   sodipodi:docname="favicon.svg" inkscape:version="1.3.2 (091e20e, 2023-11-25)"
   xmlns:inkscape="http://www.inkscape.org/namespaces/inkscape"
   xmlns:sodipodi="http://sodipodi.sourceforge.net/DTD/sodipodi-0.dtd" xmlns="http://www.w3.org/2000/svg"
   xmlns:svg="http://www.w3.org/2000/svg">
   <defs id="defs1" />
   <sodipodi:namedview id="namedview1" pagecolor="#ffffff" bordercolor="#000000" borderopacity="0.25"
      inkscape:showpageshadow="2" inkscape:pageopacity="0.0" inkscape:pagecheckerboard="0" inkscape:deskcolor="#d1d1d1"
      inkscape:zoom="0.6398454" inkscape:cx="228.18012" inkscape:cy="56.263591" inkscape:window-width="1408"
      inkscape:window-height="847" inkscape:window-x="1735" inkscape:window-y="104" inkscape:window-maximized="0"
      inkscape:current-layer="g1" />
   <g inkscape:groupmode="layer" inkscape:label="bg" id="g1" transform="translate(-181.53238,-43.961414)">
      <path style="fill:#000000;stroke-width:0.61127"
         d="m 318.48327,116.71343 c -5.72551,-1.03708 -4.79769,-9.24276 3.87743,-34.292319 8.27877,-23.90512 9.11301,-32.34668 3.46278,-35.04013 -14.14159,-6.74123 -37.62007,14.66849 -38.96325,35.5301 -1.16994,18.170979 18.10684,19.795089 23.98063,2.0204 2.50079,-7.5676 0.89714,-11.94153 -4.37819,-11.94153 -3.61224,0 -2.55108,-1.36085 1.39602,-1.79026 11.97317,-1.30257 8.69241,18.63626 -4.29451,26.10011 -12.50562,7.187239 -24.17376,-5.68743 -20.01535,-22.08499 7.45588,-29.4004 49.54298,-43.93309 49.69203,-17.15868 0.0323,5.82525 -0.98907,9.81796 -6.56644,25.66584 -10.3964,29.540899 -10.4226,38.178419 -0.0794,26.142499 3.87479,-4.5089 5.29281,-6.88016 17.10817,-28.609109 7.7198,-14.19706 10.366,-10.7668 4.41162,5.71873 -6.89763,19.096949 -4.4296,27.951779 6.2596,22.458229 21.07788,-10.832639 30.13158,-48.852489 11.4948,-48.270949 -3.08444,0.0962 -3.35924,7.7e-4 -2.67779,-0.9287 1.26017,-1.71917 7.30376,-0.96534 10.1472,1.26568 12.31893,9.66568 4.54835,38.04532 -13.19202,48.179909 -12.61067,7.20412 -20.74789,1.85719 -18.96218,-12.459959 0.64156,-5.14382 0.46909,-5.08907 -3.14237,0.99763 -7.15091,12.052019 -14.8652,19.347689 -19.55885,18.497499 z m -131.9971,-7.58896 c -4.91821,-2.05099 -6.47316,-7.43746 -3.30323,-11.442619 3.31592,-4.18964 9.9376,-3.78204 18.37029,1.13079 6.37922,3.716489 7.13241,2.878309 18.23647,-20.29407 5.68692,-11.86772 9.92223,-19.65107 11.49962,-21.13328 4.62332,-4.34429 -12.7047,-8.96178 -23.15908,-6.17133 -12.10525,3.23109 -21.25646,14.56216 -18.27831,22.63224 2.7183,7.36591 12.98939,6.47012 16.12647,-1.40646 1.27801,-3.20878 2.35021,-3.58506 1.83038,-0.64234 -2.26736,12.83563 -20.53487,11.30749 -21.49477,-1.79812 -1.25532,-17.13878 26.20636,-28.23108 45.7099,-18.46313 2.57826,1.29127 2.57826,1.29127 4.75518,-0.93543 4.63076,-4.73673 9.11996,-6.76747 5.66489,-2.56258 -4.43017,5.39161 -4.87248,6.59162 -3.01539,8.18112 28.73051,24.59056 8.39641,63.221989 -26.59729,50.530509 -5.50178,-1.99539 -5.50178,-1.99539 -9.77563,0.46071 -5.0279,2.88941 -12.23429,3.72185 -16.5695,1.91399 z m 14.18705,-3.3975 c 4.32038,-2.1952 4.25479,-2.41352 -1.66923,-5.55663 -8.23728,-4.370449 -12.99655,-3.641319 -12.99655,1.99111 0,5.80662 6.93623,7.49294 14.66578,3.56552 z m 32.52499,1.45072 c 13.11457,-3.95241 18.27892,-20.884239 11.35746,-37.236359 -1.74864,-4.13119 -7.88733,-12.69093 -8.5422,-11.91116 -0.15021,0.17886 -3.92169,7.01782 -8.38106,15.19767 -9.02517,16.5549 -12.36132,22.08256 -15.99185,26.49701 -3.13451,3.811299 -3.26805,3.490169 2.27679,5.475149 8.00643,2.8662 14.21846,3.50339 19.28086,1.97769 z m 25.59183,-0.0419 c -0.61152,-1.80427 0.3251,-4.18955 1.81087,-4.61177 2.95335,-0.83923 4.48789,1.24965 2.91484,3.96782 -1.07836,1.86336 -4.16965,2.2846 -4.72571,0.64395 z m 125.71769,0.19659 c -1.766,-1.99946 0.33632,-5.32255 3.13753,-4.95946 1.27313,0.16503 1.66893,0.58557 1.80541,1.91827 0.30839,3.01111 -3.11123,5.11507 -4.94294,3.04119 z"
         id="path1" inkscape:label="path1" />
   </g>
</svg>